<?xml version="1.0" standalone="no"?>
<!DOCTYPE svg PUBLIC "-//W3C//DTD SVG 20010904//EN"
 "http://www.w3.org/TR/2001/REC-SVG-20010904/DTD/svg10.dtd">
<svg version="1.0" xmlns="http://www.w3.org/2000/svg"
 width="800.000000pt" height="600.000000pt" viewBox="0 0 800.000000 600.000000"
 preserveAspectRatio="xMidYMid meet">

<g transform="translate(0.000000,600.000000) scale(0.100000,-0.100000)"
fill="#000000" stroke="none">
<path d="M3968 4063 l-3 -67 -129 -88 c-70 -48 -151 -95 -180 -104 -89 -29
-220 -102 -307 -172 -156 -125 -276 -306 -336 -507 -24 -81 -27 -106 -27 -250
0 -165 7 -214 55 -343 123 -336 431 -583 802 -642 108 -18 309 -8 412 20 196
53 350 144 490 292 285 299 351 721 170 1093 -108 223 -304 402 -547 499 -60
24 -136 67 -213 119 l-120 83 -3 67 c-3 67 -3 67 -32 67 -29 0 -29 0 -32 -67z
m160 -200 l127 -88 -127 -3 c-71 -1 -185 -1 -255 0 l-128 3 125 87 c69 48 126
87 128 87 1 1 60 -38 130 -86z m-408 -393 l0 -240 -30 0 -30 0 0 -115 0 -115
-195 0 -195 0 0 -75 0 -75 -121 0 -122 0 7 78 c20 229 106 422 260 580 78 81
138 128 219 173 45 25 63 29 130 29 l77 0 0 -240z m500 0 l0 -240 -220 0 -220
0 0 240 0 240 220 0 220 0 0 -240z m267 209 c269 -154 452 -440 470 -736 l6
-93 -117 0 -116 0 0 75 0 75 -195 0 -195 0 0 115 0 115 -30 0 -30 0 0 240 0
240 76 0 c67 0 83 -4 131 -31z m-207 -534 l0 -25 -280 0 -280 0 0 25 0 25 280
0 280 0 0 -25z m-510 -435 l0 -390 -25 0 -25 0 0 390 0 390 25 0 25 0 0 -390z
m430 -2 c0 -245 -4 -388 -9 -382 -6 5 -11 97 -13 205 -3 195 -3 196 -30 231
-72 95 -224 95 -296 0 -27 -35 -27 -36 -30 -231 -2 -108 -7 -200 -13 -205 -5
-6 -9 137 -9 382 l0 392 200 0 200 0 0 -392z m80 2 l0 -390 -25 0 -25 0 0 390
0 390 25 0 25 0 0 -390z m-620 210 c0 -19 -7 -20 -165 -20 -158 0 -165 1 -165
20 0 19 7 20 165 20 158 0 165 -1 165 -20z m1010 0 c0 -19 -7 -20 -165 -20
-158 0 -165 1 -165 20 0 19 7 20 165 20 158 0 165 -1 165 -20z m-1010 -326 c0
-216 -3 -275 -12 -272 -9 3 -14 38 -16 116 l-3 112 -134 0 -135 0 0 -115 c0
-96 -3 -115 -15 -115 -13 0 -15 37 -15 275 l0 275 165 0 165 0 0 -276z m1010
1 c0 -238 -2 -275 -15 -275 -12 0 -15 19 -15 115 l0 115 -135 0 -134 0 -3
-112 c-2 -78 -7 -113 -15 -116 -10 -3 -13 56 -13 272 l0 276 165 0 165 0 0
-275z m-603 199 c19 -9 46 -33 61 -52 l27 -35 0 -191 0 -191 -155 0 -155 0 -3
170 c-3 217 8 255 93 299 39 20 88 20 132 0z m-797 -24 c0 -19 -7 -20 -115
-20 -108 0 -115 1 -115 20 0 19 7 20 115 20 108 0 115 -1 115 -20z m1690 0 c0
-19 -7 -20 -115 -20 -108 0 -115 1 -115 20 0 19 7 20 115 20 108 0 115 -1 115
-20z m-1690 -135 c0 -92 -11 -107 -34 -50 -30 71 -108 69 -132 -4 -13 -40 -17
-35 -38 46 -26 99 -31 93 94 93 l110 0 0 -85z m1680 78 c0 -4 -10 -43 -22 -86
l-21 -80 -11 34 c-6 19 -23 40 -38 49 -25 13 -31 13 -55 0 -16 -9 -32 -29 -38
-48 -5 -17 -15 -32 -22 -32 -10 0 -13 22 -13 85 l0 85 110 0 c61 0 110 -3 110
-7z m-1746 -125 c9 -12 16 -33 16 -45 0 -18 6 -23 25 -23 l25 0 0 -100 0 -100
-29 0 c-25 0 -35 8 -64 58 -51 83 -79 142 -68 142 4 0 11 14 15 32 12 60 51
77 80 36z m1654 10 c5 -7 15 -30 20 -52 10 -34 8 -45 -15 -90 -46 -92 -82
-136 -108 -136 -25 0 -25 1 -25 100 l0 100 25 0 c19 0 25 5 25 23 0 50 52 86
78 55z m-1250 -175 l-3 -98 -107 -3 -108 -3 0 101 0 100 110 0 111 0 -3 -97z
m1002 -3 l0 -101 -107 3 -108 3 -3 98 -3 97 111 0 110 0 0 -100z m120 -159 c0
-14 -115 -117 -178 -160 -287 -194 -659 -223 -970 -76 -111 53 -196 112 -272
189 l-54 56 737 0 c425 0 737 -4 737 -9z"/>
<path d="M3830 3470 c0 -162 2 -190 15 -190 8 0 15 4 15 10 0 5 15 17 33 27
64 34 247 14 247 -27 0 -6 7 -10 15 -10 13 0 15 28 15 190 l0 190 -170 0 -170
0 0 -190z m310 16 l0 -155 -35 15 c-19 8 -66 14 -105 14 -39 0 -86 -6 -105
-14 l-35 -15 0 155 0 154 140 0 140 0 0 -154z"/>
<path d="M3938 3604 c-60 -32 -76 -121 -33 -173 95 -112 267 -1 200 129 -28
55 -109 76 -167 44z m127 -39 c28 -27 34 -88 12 -116 -44 -57 -131 -48 -162
17 -14 29 -14 37 -1 68 17 41 39 55 89 56 27 0 45 -7 62 -25z"/>
<path d="M3940 2965 l0 -95 60 0 60 0 0 95 0 95 -60 0 -60 0 0 -95z m90 5 l0
-70 -30 0 -30 0 0 70 0 70 30 0 30 0 0 -70z"/>
<path d="M3440 2750 l0 -60 60 0 61 0 -3 58 -3 57 -57 3 -58 3 0 -61z m90 0
c0 -28 -3 -30 -35 -30 -32 0 -35 2 -35 30 0 28 3 30 35 30 32 0 35 -2 35 -30z"/>
<path d="M3360 2620 c0 -13 7 -20 20 -20 13 0 20 7 20 20 0 13 -7 20 -20 20
-13 0 -20 -7 -20 -20z"/>
<path d="M3440 2620 c0 -13 7 -20 20 -20 13 0 20 7 20 20 0 13 -7 20 -20 20
-13 0 -20 -7 -20 -20z"/>
<path d="M3510 2620 c0 -15 7 -20 25 -20 18 0 25 5 25 20 0 15 -7 20 -25 20
-18 0 -25 -5 -25 -20z"/>
<path d="M3590 2620 c0 -13 7 -20 20 -20 13 0 20 7 20 20 0 13 -7 20 -20 20
-13 0 -20 -7 -20 -20z"/>
<path d="M4447 2803 c-4 -3 -7 -30 -7 -60 l0 -53 60 0 60 0 0 60 0 60 -53 0
c-30 0 -57 -3 -60 -7z m93 -53 c0 -28 -3 -30 -35 -30 -32 0 -35 2 -35 30 0 28
3 30 35 30 32 0 35 -2 35 -30z"/>
<path d="M4370 2620 c0 -13 7 -20 20 -20 13 0 20 7 20 20 0 13 -7 20 -20 20
-13 0 -20 -7 -20 -20z"/>
<path d="M4440 2620 c0 -15 7 -20 25 -20 18 0 25 5 25 20 0 15 -7 20 -25 20
-18 0 -25 -5 -25 -20z"/>
<path d="M4520 2620 c0 -13 7 -20 20 -20 13 0 20 7 20 20 0 13 -7 20 -20 20
-13 0 -20 -7 -20 -20z"/>
<path d="M4600 2620 c0 -13 7 -20 20 -20 13 0 20 7 20 20 0 13 -7 20 -20 20
-13 0 -20 -7 -20 -20z"/>
</g>
</svg>
